<?xml version="1.0" standalone="no"?>
<!DOCTYPE svg PUBLIC "-//W3C//DTD SVG 20010904//EN"
 "http://www.w3.org/TR/2001/REC-SVG-20010904/DTD/svg10.dtd">
<svg version="1.0" xmlns="http://www.w3.org/2000/svg"
 width="200.000000pt" height="200.000000pt" viewBox="0 0 200.000000 200.000000"
 preserveAspectRatio="xMidYMid meet">
<metadata>
Created by potrace 1.11, written by Peter Selinger 2001-2013
</metadata>
<g transform="translate(0.000000,200.000000) scale(0.100000,-0.100000)"
fill="#000000" stroke="none">
<path d="M850 1990 c-101 -17 -129 -30 -183 -85 -100 -101 -144 -218 -134
-359 5 -89 30 -163 76 -230 27 -38 92 -110 95 -104 1 2 0 41 -2 87 l-4 84 -23
-29 -23 -28 10 58 c5 32 13 67 18 77 14 24 13 29 -6 29 -12 0 -9 6 10 21 20
15 24 24 16 29 -9 5 -6 10 9 15 30 9 64 47 50 56 -6 4 4 15 25 28 35 22 36 23
20 52 l-15 30 30 -15 c16 -9 41 -16 56 -16 20 0 25 5 25 23 0 35 10 39 39 18
15 -11 53 -26 85 -35 32 -8 63 -19 69 -25 6 -6 60 15 158 65 82 41 149 73 149
71 0 -2 -30 -28 -67 -58 -99 -79 -113 -91 -146 -123 -25 -24 -27 -27 -8 -21
32 10 40 -23 11 -45 -23 -18 -23 -18 -7 -61 9 -24 27 -74 41 -111 l25 -67 -24
-15 c-21 -14 -25 -13 -46 4 -29 26 -43 25 -28 -1 9 -17 8 -23 -2 -30 -23 -15
-48 -10 -59 11 -6 11 -8 20 -4 20 4 0 -11 13 -32 28 -66 47 -69 48 -47 11 49
-83 92 -157 116 -201 l26 -47 -40 -11 c-101 -27 -228 -13 -335 37 -71 33 -189
147 -221 213 -43 89 -56 143 -56 235 0 126 31 220 102 309 17 21 31 40 31 42
0 2 -17 -5 -38 -14 -275 -124 -483 -369 -559 -659 -50 -192 -38 -424 32 -604
121 -314 369 -534 699 -621 113 -29 318 -33 436 -8 412 88 719 410 789 830 13
79 11 232 -5 323 -73 415 -396 738 -811 811 -84 14 -250 17 -323 6z m-636
-973 c15 -24 -17 -56 -41 -41 -24 15 -26 29 -7 48 19 19 33 17 48 -7z m1638
-1 c7 -13 6 -22 -5 -33 -28 -29 -73 11 -48 41 15 18 41 14 53 -8z m-1204 -15
c6 -1 12 -10 12 -21 0 -17 -7 -20 -38 -20 l-39 0 1 -42 c1 -39 3 -43 30 -48
34 -6 46 -39 15 -41 -10 -1 -25 -2 -31 -3 -9 -1 -13 -20 -13 -61 0 -55 -2 -60
-22 -63 -17 -2 -23 2 -24 15 0 10 -1 76 -1 147 -2 153 -9 144 110 137z m82
-10 c1 -10 1 -233 1 -263 -1 -21 -6 -28 -21 -28 -11 0 -20 6 -21 13 -3 35 -5
283 -2 289 4 7 43 -2 43 -11z m162 -9 c18 -18 23 -81 19 -214 -2 -45 -33 -68
-91 -68 -45 0 -50 2 -51 23 -1 31 -1 194 0 242 l1 40 52 -2 c35 -2 58 -9 70
-21z m178 1 c0 -20 -5 -23 -41 -23 l-40 0 3 -41 c3 -38 6 -42 32 -45 15 -2 30
-5 32 -7 8 -8 -8 -37 -20 -36 -40 5 -46 -1 -46 -45 0 -41 2 -44 28 -43 54 0
60 -2 55 -23 -5 -19 -12 -21 -67 -18 l-61 3 -1 147 c0 166 -7 153 83 153 38 0
43 -3 43 -22z m147 4 c6 -7 13 -23 15 -37 2 -20 -2 -26 -19 -28 -17 -3 -23 2
-23 16 0 26 -10 33 -31 22 -26 -14 -16 -45 31 -96 22 -24 40 -49 41 -56 0 -7
2 -22 4 -32 4 -21 -11 -56 -29 -68 -34 -23 -106 2 -106 37 0 7 -3 20 -6 29 -5
12 0 16 20 16 19 0 26 -5 26 -20 0 -25 29 -38 41 -19 15 24 10 38 -32 84 -63
68 -68 144 -13 166 23 10 65 2 81 -14z m93 -138 c0 -150 0 -150 -22 -147 -23
3 -23 5 -24 150 -1 127 1 148 15 151 9 2 19 2 24 0 4 -2 7 -72 7 -154z m138
147 c34 -11 39 -32 37 -148 -1 -122 -14 -148 -70 -148 -60 0 -69 16 -73 132
-4 114 6 154 40 167 25 9 31 9 66 -3z m236 -268 c-4 -6 1 -17 11 -24 15 -12
20 -11 32 4 13 16 14 15 10 -5 -4 -18 -1 -23 14 -23 30 0 34 1 32 11 -2 5 2 9
8 9 8 0 4 -35 -5 -47 -3 -4 -110 38 -118 45 -10 10 2 53 13 46 5 -3 6 -10 3
-16z m-1354 3 c0 -12 -113 -81 -120 -74 -3 2 2 10 11 16 21 16 13 37 -13 37
-35 0 -11 13 35 20 73 10 87 10 87 1z m29 -64 c8 -10 7 -19 -5 -33 -15 -18
-15 -18 -9 4 5 16 2 22 -9 22 -26 0 -86 -33 -86 -47 0 -17 25 -17 43 2 13 12
16 12 20 1 8 -19 -51 -40 -69 -26 -22 19 -9 45 36 68 51 26 63 27 79 9z m1401
-63 c0 -12 -7 -24 -15 -28 -17 -6 -126 44 -119 55 2 4 27 -4 54 -17 27 -13 55
-24 61 -24 25 0 -1 27 -49 51 -29 14 -49 28 -46 32 3 3 30 -6 60 -21 41 -20
54 -32 54 -48z m-1360 -14 c6 -12 7 -20 1 -20 -5 0 -11 5 -13 11 -2 7 -13 9
-26 5 -18 -6 -20 -11 -12 -27 11 -20 -3 -28 -15 -9 -7 12 -16 12 -34 1 -10 -7
-11 -13 -2 -30 15 -27 0 -28 -17 0 -15 24 -15 25 41 61 51 33 63 34 77 8z
m1289 -28 c38 -28 38 -29 22 -51 -19 -25 -37 -22 -88 16 -31 23 -42 51 -26 67
12 11 51 -2 92 -32z m-1279 -46 c-22 -37 -37 -48 -26 -20 4 11 -2 10 -25 -6
-16 -12 -33 -19 -37 -15 -4 3 0 10 8 15 8 4 33 22 54 39 22 17 41 29 44 27 2
-3 -6 -21 -18 -40z m1225 -30 c22 -19 35 -35 28 -36 -12 0 -96 67 -102 82 -5
16 29 -6 74 -46z m-1177 25 c-6 -16 -108 -92 -108 -81 0 19 21 51 29 46 4 -3
23 6 41 19 37 27 43 30 38 16z m1137 -49 c25 -24 44 -47 41 -50 -4 -3 -28 4
-54 17 l-47 23 34 -36 c52 -53 32 -52 -24 1 -52 51 -49 63 12 38 l38 -16 -35
37 c-47 49 -24 40 35 -14z m-1091 1 c4 -9 2 -21 -4 -27 -7 -7 -10 -3 -10 12 0
31 -12 28 -54 -14 -34 -34 -40 -61 -10 -50 14 5 19 -5 8 -17 -10 -10 -44 12
-44 28 0 22 65 85 88 85 11 0 23 -8 26 -17z m1060 -122 c-3 -3 -15 5 -25 18
-13 16 -23 21 -30 14 -11 -11 -2 -43 12 -43 5 0 9 -4 9 -10 0 -21 -17 -8 -53
39 -38 50 -52 84 -17 42 13 -15 26 -21 36 -17 15 6 15 9 -5 30 -11 12 -18 25
-15 29 3 3 26 -17 50 -45 24 -28 41 -54 38 -57z m-999 61 c-2 -3 -11 1 -19 7
-12 10 -17 8 -25 -8 -6 -11 -8 -28 -4 -38 6 -15 4 -16 -8 -6 -12 10 -18 10
-27 1 -16 -16 -15 -35 1 -41 6 -2 9 -8 5 -12 -9 -9 -41 21 -36 34 2 5 20 30
42 55 37 45 40 46 57 30 11 -10 17 -19 14 -22z m871 -24 c5 -8 2 -9 -10 -5
-29 11 -30 -21 -2 -64 26 -38 46 -44 46 -13 0 8 5 14 10 14 13 0 13 -6 0 -31
-15 -28 -36 -23 -63 14 -30 40 -38 62 -31 82 7 18 40 20 50 3z m-784 -33 c4
-5 -5 -31 -19 -57 -20 -37 -32 -48 -50 -48 -37 0 -38 24 -2 84 33 56 44 59 71
21z m695 -6 c-26 -15 -4 -52 26 -44 21 6 21 5 4 -9 -16 -12 -16 -17 -6 -34 10
-16 17 -18 31 -11 10 5 18 6 18 1 0 -5 -10 -14 -23 -19 -22 -10 -25 -7 -55 50
l-31 62 22 12 c26 14 40 6 14 -8z m-672 -56 c-14 -27 -25 -54 -25 -60 0 -7 -4
-13 -10 -13 -5 0 -10 5 -10 10 0 19 50 110 60 110 6 0 -1 -21 -15 -47z m618
30 c-10 -3 -10 -10 -2 -24 19 -36 38 -99 30 -99 -4 0 -18 25 -30 55 -14 35
-29 55 -39 55 -10 1 -4 7 13 14 17 7 32 11 35 8 3 -3 -1 -7 -7 -9z m-525 -25
c2 -10 -1 -18 -7 -18 -6 0 -11 7 -11 16 0 26 -24 10 -43 -30 -21 -44 -16 -76
8 -56 9 8 13 21 10 31 -4 11 -2 19 4 19 17 0 22 -17 11 -45 -7 -19 -16 -26
-32 -23 -30 4 -34 30 -13 85 15 38 20 44 43 41 16 -2 28 -10 30 -20z m27 -47
c-14 -53 -34 -95 -35 -72 0 23 33 121 41 121 4 0 1 -22 -6 -49z m72 34 c14 -5
14 -7 1 -18 -9 -6 -22 -37 -29 -67 -7 -30 -14 -49 -17 -42 -2 7 1 34 7 59 9
32 9 49 2 56 -16 16 -13 27 4 22 8 -3 22 -7 32 -10z m320 -11 c3 -9 -2 -31
-11 -51 -17 -36 -14 -53 10 -53 17 0 17 5 3 32 -9 18 -9 20 4 15 9 -3 18 -1
21 6 2 7 5 0 5 -15 1 -16 7 -28 14 -28 6 -1 -3 -7 -22 -15 -43 -19 -65 -5 -59
37 3 16 1 31 -4 34 -4 3 -8 16 -8 30 0 17 5 24 20 24 11 0 23 -7 27 -16z
m-258 -48 c1 -24 4 -54 6 -65 2 -12 0 -21 -6 -21 -5 0 -9 6 -9 14 0 21 -28 27
-39 8 -18 -31 -21 -5 -5 34 9 21 20 49 25 62 13 34 25 20 28 -32z m151 43 c0
-5 -7 -9 -15 -9 -9 0 -15 -10 -15 -26 0 -19 4 -25 15 -20 8 3 15 1 15 -4 0 -6
-7 -10 -15 -10 -23 0 -18 -36 8 -48 22 -10 22 -11 -5 -11 -16 -1 -28 2 -29 7
-7 56 -9 107 -6 116 6 14 47 18 47 5z m-102 -46 c0 -71 1 -73 17 -73 8 0 15
-4 15 -9 0 -5 -8 -8 -17 -6 -10 2 -21 4 -25 4 -10 1 -8 131 2 131 4 0 8 -21 8
-47z"/>
<path d="M815 853 c0 -93 2 -106 17 -109 27 -4 32 14 34 106 1 101 -2 110 -30
110 -20 0 -21 -4 -21 -107z"/>
<path d="M1392 853 c3 -100 4 -108 23 -108 19 0 20 7 20 105 0 102 -1 105 -23
108 -23 3 -23 3 -20 -105z"/>
<path d="M245 711 c-10 -17 9 -20 30 -5 18 14 18 14 -2 14 -12 0 -24 -4 -28
-9z"/>
<path d="M1606 575 c-5 -15 56 -65 80 -65 24 0 1 38 -36 59 -32 18 -39 19 -44
6z"/>
<path d="M592 311 c-24 -42 -28 -61 -12 -61 12 0 60 70 60 87 0 26 -27 12 -48
-26z"/>
<path d="M1150 256 c0 -17 14 -29 23 -20 8 8 -3 34 -14 34 -5 0 -9 -6 -9 -14z"/>
<path d="M898 206 c-4 -18 -1 -26 8 -26 16 0 18 18 5 38 -6 10 -10 7 -13 -12z"/>
</g>
</svg>
